<?xml version="1.0" standalone="yes"?>
<svg xmlns="http://www.w3.org/2000/svg" width="851" height="952">
<path style="fill:#ffffff; stroke:none;" d="M0 0L0 187L0 237C0 242.591 -1.9467 252.765 1.02778 257.671C5.69542 265.37 22.2679 270.988 30 275.421C54.9797 289.742 79.969 304.05 105 318.281C165.428 352.637 225.63 387.391 286 421.85C315.68 438.791 345.047 458.548 376 473L376 475C361.128 479.708 346.539 491.219 333 499C303.961 515.689 275.112 532.72 246 549.281C235.966 554.989 226.015 560.837 216 566.579C211.89 568.935 206.747 573.179 202 573.911C195.632 574.892 185.286 565.971 180 562.8C161.064 551.439 142.042 540.196 123 529.011C94.2941 512.149 65.5477 495.328 37 478.2C28.2319 472.939 9.46927 466.328 4.02778 457.621C-1.17899 449.29 3.38833 428.767 2.96065 419C1.3431 382.06 1 345.026 1 308L0 308L0 952L401 952L401 951L326 908.011L252 865L292 842.281L402 779L402 952L448 952L446 518C463.665 525.612 480.416 537.249 497 546.989C522.882 562.19 549.118 576.788 575 591.989C585.945 598.417 596.995 604.675 608 611C612.146 613.383 618.555 615.728 620.972 620.104C625.631 628.54 622 647.421 622 657C622 689.298 621 721.637 621 754C621 776.987 620 799.958 620 823C620 829.618 622.568 843.213 618.397 848.671C614.969 853.155 607.766 855.94 603 858.8L568 879.8C528.614 903.432 489.174 927.02 450 951L450 952L851 952L851 692L818 673.603L762 641.011L569 528.576L509 493.576L476 475L476 473C520.224 454.583 561.897 425.664 604 402.769C615.032 396.77 626.066 390.754 637 384.576C640.771 382.445 646.486 377.752 651 378.117C656.234 378.54 662.517 383.732 667 386.281C679.31 393.28 691.701 400.134 704 407.15C736.887 425.911 769.94 444.407 803 462.86C818.088 471.282 834.427 484.125 851 489L851 450L850.397 433.39L841 426.799L814 411.201L744 370.799L701 347L701 345L808 283.579L837 266.85L849.972 258.39L851 239L851 189L851 0L450 0L450 1L598 86L448 173L448 0L401 0L402 434C361.656 409.308 320.081 386.298 279 362.85C266.959 355.976 254.955 349.032 243 342.011C238.47 339.35 230.842 336.784 227.693 332.471C224.134 327.596 227 312.109 227 306C227 281.354 226.229 256.558 227.91 232C230.066 200.524 227.581 168.516 228.961 137C229.37 127.655 225.893 112.822 229.603 104.21C231.439 99.9495 238.259 97.4807 242 95.189C252.635 88.6732 263.304 82.2178 274 75.8002C314.995 51.2035 355.71 21.235 399 1L363 0L282 0L0 0z"/>
<path style="fill:#41b167; stroke:none;" d="M402 434L401 0L358 24.6003L272 76.3997L241 95.189L229.603 103.379L228.961 136L227.91 231L227 305L227.067 332.471L241 341.424L275 361.15L357 408.424L402 434M448 0L448 173C480.199 159.125 510.533 137.242 541 119.85C558.95 109.603 582.958 100.13 598 86L500 29.1505L448 0M446 432L489 408.281L579 356.85L738 265.85L823 217C813.673 206.112 794.44 199.149 782 192C751.627 174.544 721.392 156.845 691 139.421L660 121.579C656.407 119.519 651.362 115.264 647 115.724C636.709 116.808 622.868 129.139 614 134.397C587.691 149.995 561.525 165.922 535 181.15C514.189 193.097 493.578 205.454 473 217.8C467.224 221.266 453.497 226.101 450.603 232.379C448.228 237.534 450.123 246.395 449.985 252C449.634 266.321 449 280.615 449 295C449 340.634 446 386.369 446 432M27 216L27 218L119 271.011L177 304L177 131L134 154.579L27 216M0 258C0 306.389 2 354.627 2 403C2 416.002 3 428.952 3 442C3 446.447 1.44883 454.552 4.02778 458.39C9.83388 467.032 28.0891 473.454 37 478.8C64.8773 495.526 92.8825 512.106 121 528.424C140.43 539.701 159.736 551.242 179 562.8C184.595 566.157 195.241 575.347 202 574.369C207.728 573.54 214.047 568.261 219 565.421C231.022 558.529 243.078 551.668 255 544.603C294.445 521.229 334.49 494.403 376 475L376 473L305 432.15L172 356.15L61 292.579L0 258M701 345L701 347C738.632 363.216 774.531 388.839 810 409.424C822.807 416.857 836.752 427.888 851 432L851 259L799 288.15L701 345M476 473L476 475C564.609 522.16 650.436 576.17 737 627.011C762.943 642.247 788.979 657.322 815 672.424C825.81 678.698 838.684 689.625 851 692L851 548L851 508C851 503.026 852.536 494.959 850.397 490.39C847.611 484.442 834.524 480.156 829 476.999C808.753 465.428 788.44 453.921 768 442.694C740.16 427.403 712.735 411.342 685 395.86C675.869 390.764 661.464 378.429 651 377.643C646.149 377.278 640.057 382.284 636 384.576C625.396 390.567 614.699 396.413 604 402.231C561.236 425.485 518.026 448.447 476 473M1 517L1 690C16.004 686.559 31.6391 673.476 45 665.85C80.0349 645.852 114.462 622.059 151 605L151 603L46 542.576L1 517M446 518L448 952C462.385 946.733 475.874 935.876 489 928C517.03 911.181 544.971 894.217 573 877.4L605 858.2C609.212 855.673 616.354 852.997 618.972 848.671C622.623 842.641 620 828.935 620 822C620 799.288 621 776.662 621 754C621 722.305 622 690.629 622 659C622 648.151 625.488 630.151 621.397 620.104C619.564 615.604 612.939 613.264 609 611L578 593.15C547.952 575.902 518.089 558.327 488 541.15C474.788 533.608 460.619 522.3 446 518M27 736L27 738C70.3762 756.691 111.573 784.554 153 807.306C163.344 812.986 173.726 818.62 184 824.424C188.999 827.249 195.274 832.304 201 833.229C207.751 834.32 218.31 825.515 224 822.281C243.964 810.932 264.017 799.739 284 788.424C312.291 772.405 340.779 756.723 369 740.579C377.402 735.772 395.759 729.819 400.972 721.61C403.403 717.783 402 710.364 402 706L402 666L402 519C390.382 522.417 379.468 531.14 369 537.15C345.575 550.598 322.291 564.31 299 577.989C238.796 613.348 178.387 648.378 118 683.424C88.2994 700.662 58.5164 722.419 27 736M672 648L672 821C692.349 813.593 712.352 798.654 731 787.603C761.131 769.748 792.126 753.284 822 735L822 734L721 675.719L672 648M252 865C267.042 879.13 291.05 888.603 309 898.85C339.467 916.242 369.8 938.125 402 952L402 779L351 807.719L252 865z"/>
</svg>
